<svg width="1922" height="1160" xmlns="http://www.w3.org/2000/svg" xmlns:xlink="http://www.w3.org/1999/xlink" xml:space="preserve" overflow="hidden"><defs><clipPath id="clip0"><rect x="1425" y="201" width="1922" height="1160"/></clipPath></defs><g clip-path="url(#clip0)" transform="translate(-1425 -201)"><rect x="1425" y="201" width="1922" height="1160" fill="#FFFFFF"/><g><rect x="1652.5" y="370.5" width="1560" height="787" stroke="#44546A" stroke-width="3.4375" stroke-linejoin="round" stroke-miterlimit="10" fill="none"/></g><g><path d="M0 0 0.000360892 787" stroke="#3B3838" stroke-width="3.4375" stroke-linejoin="round" stroke-miterlimit="10" fill="none" fill-rule="evenodd" transform="matrix(1 0 0 -1 1652.5 1157.5)"/></g><g><path d="M1639.5 1157.5 1652.5 1157.5M1639.5 1079.54 1652.5 1079.54M1639.5 1000.53 1652.5 1000.53M1639.5 921.53 1652.5 921.53M1639.5 842.528 1652.5 842.528M1639.5 764.525 1652.5 764.525M1639.5 685.523 1652.5 685.523M1639.5 606.52 1652.5 606.52M1639.5 528.518 1652.5 528.518M1639.5 449.515 1652.5 449.515M1639.5 370.5 1652.5 370.5" stroke="#3B3838" stroke-width="3.4375" stroke-linejoin="round" stroke-miterlimit="10" fill="none"/></g><g><path d="M1652.5 1157.5 3212.5 1157.5" stroke="#3B3838" stroke-width="3.4375" stroke-linejoin="round" stroke-miterlimit="10" fill="none" fill-rule="evenodd"/></g><g><path d="M1652.5 1157.5 1652.5 1170.5M1847.56 1157.5 1847.56 1170.5M2042.57 1157.5 2042.57 1170.5M2237.57 1157.5 2237.57 1170.5M2432.58 1157.5 2432.58 1170.5M2627.59 1157.5 2627.59 1170.5M2822.59 1157.5 2822.59 1170.5M3017.6 1157.5 3017.6 1170.5M3212.5 1157.5 3212.5 1170.5" stroke="#3B3838" stroke-width="3.4375" stroke-linejoin="round" stroke-miterlimit="10" fill="none"/></g><g><path d="M1664 1157.25C1664 1163.32 1659.07 1168.25 1653 1168.25 1646.92 1168.25 1642 1163.32 1642 1157.25 1642 1151.17 1646.92 1146.25 1653 1146.25 1659.07 1146.25 1664 1151.17 1664 1157.25Z" stroke="#4472C4" stroke-width="3.4375" stroke-linejoin="round" stroke-miterlimit="10" fill="#4472C4"/><path d="M1664 1157.25C1664 1163.32 1659.07 1168.25 1653 1168.25 1646.92 1168.25 1642 1163.32 1642 1157.25 1642 1151.17 1646.92 1146.25 1653 1146.25 1659.07 1146.25 1664 1151.17 1664 1157.25Z" stroke="#4472C4" stroke-width="3.4375" stroke-linejoin="round" stroke-miterlimit="10" fill="#4472C4"/><path d="M1664 1157.25C1664 1163.32 1659.07 1168.25 1653 1168.25 1646.92 1168.25 1642 1163.32 1642 1157.25 1642 1151.17 1646.92 1146.25 1653 1146.25 1659.07 1146.25 1664 1151.17 1664 1157.25Z" stroke="#4472C4" stroke-width="3.4375" stroke-linejoin="round" stroke-miterlimit="10" fill="#4472C4"/><path d="M1665 1156.25C1665 1162.32 1660.07 1167.25 1654 1167.25 1647.92 1167.25 1643 1162.32 1643 1156.25 1643 1150.17 1647.92 1145.25 1654 1145.25 1660.07 1145.25 1665 1150.17 1665 1156.25Z" stroke="#4472C4" stroke-width="3.4375" stroke-linejoin="round" stroke-miterlimit="10" fill="#4472C4"/><path d="M1669 1154.25C1669 1160.32 1664.07 1165.25 1658 1165.25 1651.92 1165.25 1647 1160.32 1647 1154.25 1647 1148.17 1651.92 1143.25 1658 1143.25 1664.07 1143.25 1669 1148.17 1669 1154.25Z" stroke="#4472C4" stroke-width="3.4375" stroke-linejoin="round" stroke-miterlimit="10" fill="#4472C4"/><path d="M1684 1145.25C1684 1151.32 1679.07 1156.25 1673 1156.25 1666.92 1156.25 1662 1151.32 1662 1145.25 1662 1139.17 1666.92 1134.25 1673 1134.25 1679.07 1134.25 1684 1139.17 1684 1145.25Z" stroke="#4472C4" stroke-width="3.4375" stroke-linejoin="round" stroke-miterlimit="10" fill="#4472C4"/><path d="M1746 1108.25C1746 1114.32 1741.07 1119.25 1735 1119.25 1728.92 1119.25 1724 1114.32 1724 1108.25 1724 1102.17 1728.92 1097.25 1735 1097.25 1741.07 1097.25 1746 1102.17 1746 1108.25Z" stroke="#4472C4" stroke-width="3.4375" stroke-linejoin="round" stroke-miterlimit="10" fill="#4472C4"/><path d="M1991 977.25C1991 983.325 1986.07 988.249 1980 988.249 1973.92 988.249 1969 983.325 1969 977.25 1969 971.175 1973.92 966.25 1980 966.25 1986.07 966.25 1991 971.175 1991 977.25Z" stroke="#4472C4" stroke-width="3.4375" stroke-linejoin="round" stroke-miterlimit="10" fill="#4472C4"/><path d="M2973 428.25C2973 434.325 2968.07 439.249 2962 439.249 2955.92 439.249 2951 434.325 2951 428.25 2951 422.175 2955.92 417.25 2962 417.25 2968.07 417.25 2973 422.175 2973 428.25Z" stroke="#4472C4" stroke-width="3.4375" stroke-linejoin="round" stroke-miterlimit="10" fill="#4472C4"/></g><g><text fill="#595959" font-family="Calibri,Calibri_MSFontService,sans-serif" font-weight="400" font-size="41" transform="matrix(1 0 0 1 1593.28 1169)">0</text></g><g><text fill="#595959" font-family="Calibri,Calibri_MSFontService,sans-serif" font-weight="400" font-size="41" transform="matrix(1 0 0 1 1572.38 1091)">10</text></g><g><text fill="#595959" font-family="Calibri,Calibri_MSFontService,sans-serif" font-weight="400" font-size="41" transform="matrix(1 0 0 1 1572.38 1012)">20</text></g><g><text fill="#595959" font-family="Calibri,Calibri_MSFontService,sans-serif" font-weight="400" font-size="41" transform="matrix(1 0 0 1 1572.38 933)">30</text></g><g><text fill="#595959" font-family="Calibri,Calibri_MSFontService,sans-serif" font-weight="400" font-size="41" transform="matrix(1 0 0 1 1572.38 854)">40</text></g><g><text fill="#595959" font-family="Calibri,Calibri_MSFontService,sans-serif" font-weight="400" font-size="41" transform="matrix(1 0 0 1 1572.38 776)">50</text></g><g><text fill="#595959" font-family="Calibri,Calibri_MSFontService,sans-serif" font-weight="400" font-size="41" transform="matrix(1 0 0 1 1572.38 697)">60</text></g><g><text fill="#595959" font-family="Calibri,Calibri_MSFontService,sans-serif" font-weight="400" font-size="41" transform="matrix(1 0 0 1 1572.38 618)">70</text></g><g><text fill="#595959" font-family="Calibri,Calibri_MSFontService,sans-serif" font-weight="400" font-size="41" transform="matrix(1 0 0 1 1572.38 540)">80</text></g><g><text fill="#595959" font-family="Calibri,Calibri_MSFontService,sans-serif" font-weight="400" font-size="41" transform="matrix(1 0 0 1 1572.38 461)">90</text></g><g><text fill="#595959" font-family="Calibri,Calibri_MSFontService,sans-serif" font-weight="400" font-size="41" transform="matrix(1 0 0 1 1551.48 382)">100</text></g><g><text fill="#595959" font-family="Calibri,Calibri_MSFontService,sans-serif" font-weight="400" font-size="41" transform="matrix(1 0 0 1 1642 1223)">0</text></g><g><text fill="#595959" font-family="Calibri,Calibri_MSFontService,sans-serif" font-weight="400" font-size="41" transform="matrix(1 0 0 1 1763.88 1223)">10000000</text></g><g><text fill="#595959" font-family="Calibri,Calibri_MSFontService,sans-serif" font-weight="400" font-size="41" transform="matrix(1 0 0 1 1958.92 1223)">20000000</text></g><g><text fill="#595959" font-family="Calibri,Calibri_MSFontService,sans-serif" font-weight="400" font-size="41" transform="matrix(1 0 0 1 2153.96 1223)">30000000</text></g><g><text fill="#595959" font-family="Calibri,Calibri_MSFontService,sans-serif" font-weight="400" font-size="41" transform="matrix(1 0 0 1 2348.99 1223)">40000000</text></g><g><text fill="#595959" font-family="Calibri,Calibri_MSFontService,sans-serif" font-weight="400" font-size="41" transform="matrix(1 0 0 1 2544.03 1223)">50000000</text></g><g><text fill="#595959" font-family="Calibri,Calibri_MSFontService,sans-serif" font-weight="400" font-size="41" transform="matrix(1 0 0 1 2739.06 1223)">60000000</text></g><g><text fill="#595959" font-family="Calibri,Calibri_MSFontService,sans-serif" font-weight="400" font-size="41" transform="matrix(1 0 0 1 2934.1 1223)">70000000</text></g><g><text fill="#595959" font-family="Calibri,Calibri_MSFontService,sans-serif" font-weight="400" font-size="41" transform="matrix(1 0 0 1 3129.13 1223)">80000000</text></g><g><text fill="#595959" font-family="Calibri,Calibri_MSFontService,sans-serif" font-weight="400" font-size="46" transform="matrix(6.12323e-17 -1 1 6.12323e-17 1525.79 943)">Uśredniony czas [s]</text></g><g><text fill="#595959" font-family="Calibri,Calibri_MSFontService,sans-serif" font-weight="400" font-size="46" transform="matrix(1 0 0 1 2312.15 1292)">Liczba pikseli</text></g><g><text fill="#595959" font-family="Calibri,Calibri_MSFontService,sans-serif" font-weight="400" font-size="64" transform="matrix(1 0 0 1 1739.23 296)">Wykres zależności czasu generacji od liczby pikseli</text></g></g></svg>